<?xml version="1.0" encoding="iso-8859-1"?>
<!-- Generator: Adobe Illustrator 15.0.2, SVG Export Plug-In . SVG Version: 6.00 Build 0)  -->
<!DOCTYPE svg PUBLIC "-//W3C//DTD SVG 1.1//EN" "http://www.w3.org/Graphics/SVG/1.1/DTD/svg11.dtd">
<svg version="1.1" id="Warstwa_1" xmlns="http://www.w3.org/2000/svg" xmlns:xlink="http://www.w3.org/1999/xlink" x="0px" y="0px"
	 width="600px" height="600px" viewBox="0 0 600 600" style="enable-background:new 0 0 600 600;" xml:space="preserve">
<path style="fill:#1D1D1B;stroke:#1D1D1B;stroke-miterlimit:10;" d="M10.376,449.921c39.257-35.772,74.276-66.963,81.207-123.123
	c5.465-44.31,26.579-25.858,7.035-63.672c-23.15-44.803-33.548-69.03-48.131-114.627c27.885,37.533,22.529,24.748,51.174,61.325
	c40.591,51.833,44.172,62.433,129.32,66.037c100.278,4.245,204.704-26.606,295.814-4.246
	c20.059-84.909,39.582-147.589,35.498-188.92c10.546,78.445,24.671,57.312,4.609,205.902c-5.183,38.41,32.687,84.109,20.172,113.576
	c-17.923,42.15-9.761,64.354-12.145,115.131l-99.672-0.097c-1.159-23.122,15.123-73.305-8.452-74.541
	c-30.588-1.604-49.977,13.028-74.173,13.028c-36.228,0-40.084-9.765-78.093-5.452c-20.4,2.316-11.073,45.397-12.07,67.062l0,0
	l-91.542-3.7c-5.299-35.298,21.39-57.218,12.713-91.521c-8.898-16.472-33.635-32.681-48.235-35.2
	c-1.975,2.171-0.547,8.544-1.17,11.468c-29.828-0.715,0.578,29.497,4.605,51.57c-5.398-0.236-42.598,5.164-48.133,4.247
	c21.144,19.544,44.121,38.207,12.032,55.191C88.539,511.915,15.136,521.619,10.376,449.921L10.376,449.921z"/>
</svg>
